<mxfile host="app.diagrams.net" modified="2023-12-16T20:38:32.557Z" agent="Mozilla/5.0 (Macintosh; Intel Mac OS X 10_15_7) AppleWebKit/537.36 (KHTML, like Gecko) Chrome/120.0.0.0 Safari/537.36" etag="VGx7ruYGn9-ezdgi2o9e" version="22.1.11" type="device">
  <diagram name="Page-1" id="GjADALFRXc79j0We-ExA">
    <mxGraphModel dx="1420" dy="875" grid="1" gridSize="10" guides="1" tooltips="1" connect="1" arrows="1" fold="1" page="1" pageScale="1" pageWidth="827" pageHeight="1169" math="0" shadow="0">
      <root>
        <mxCell id="0" />
        <mxCell id="1" parent="0" />
        <mxCell id="VPtR1da3bGN1WhFtwcaK-1" style="edgeStyle=orthogonalEdgeStyle;rounded=0;orthogonalLoop=1;jettySize=auto;html=1;entryX=1;entryY=0.5;entryDx=0;entryDy=0;dashed=1;" edge="1" parent="1" source="VPtR1da3bGN1WhFtwcaK-30" target="VPtR1da3bGN1WhFtwcaK-25">
          <mxGeometry relative="1" as="geometry">
            <Array as="points">
              <mxPoint x="390" y="440" />
              <mxPoint x="390" y="85" />
            </Array>
            <mxPoint x="230" y="438" as="sourcePoint" />
          </mxGeometry>
        </mxCell>
        <mxCell id="VPtR1da3bGN1WhFtwcaK-32" value="Scenario not expired" style="edgeLabel;html=1;align=center;verticalAlign=middle;resizable=0;points=[];" vertex="1" connectable="0" parent="VPtR1da3bGN1WhFtwcaK-1">
          <mxGeometry x="-0.8696" y="1" relative="1" as="geometry">
            <mxPoint x="10" y="-9" as="offset" />
          </mxGeometry>
        </mxCell>
        <mxCell id="VPtR1da3bGN1WhFtwcaK-31" value="" style="edgeStyle=orthogonalEdgeStyle;rounded=0;orthogonalLoop=1;jettySize=auto;html=1;" edge="1" parent="1" source="VPtR1da3bGN1WhFtwcaK-2" target="VPtR1da3bGN1WhFtwcaK-30">
          <mxGeometry relative="1" as="geometry" />
        </mxCell>
        <mxCell id="VPtR1da3bGN1WhFtwcaK-2" value="scenario-callback" style="swimlane;whiteSpace=wrap;html=1;" vertex="1" parent="1">
          <mxGeometry x="40" y="180" width="280" height="210" as="geometry" />
        </mxCell>
        <mxCell id="VPtR1da3bGN1WhFtwcaK-3" value="" style="edgeStyle=orthogonalEdgeStyle;rounded=0;orthogonalLoop=1;jettySize=auto;html=1;" edge="1" parent="VPtR1da3bGN1WhFtwcaK-2" source="VPtR1da3bGN1WhFtwcaK-4" target="VPtR1da3bGN1WhFtwcaK-9">
          <mxGeometry relative="1" as="geometry" />
        </mxCell>
        <mxCell id="VPtR1da3bGN1WhFtwcaK-4" value="" style="ellipse;whiteSpace=wrap;html=1;aspect=fixed;" vertex="1" parent="VPtR1da3bGN1WhFtwcaK-2">
          <mxGeometry x="130" y="34" width="20" height="20" as="geometry" />
        </mxCell>
        <mxCell id="VPtR1da3bGN1WhFtwcaK-5" value="" style="edgeStyle=orthogonalEdgeStyle;rounded=0;orthogonalLoop=1;jettySize=auto;html=1;" edge="1" parent="VPtR1da3bGN1WhFtwcaK-2" source="VPtR1da3bGN1WhFtwcaK-9" target="VPtR1da3bGN1WhFtwcaK-14">
          <mxGeometry relative="1" as="geometry" />
        </mxCell>
        <mxCell id="VPtR1da3bGN1WhFtwcaK-6" value="Callback throws/rejects" style="edgeLabel;html=1;align=center;verticalAlign=middle;resizable=0;points=[];" vertex="1" connectable="0" parent="VPtR1da3bGN1WhFtwcaK-5">
          <mxGeometry x="-0.5027" y="-3" relative="1" as="geometry">
            <mxPoint x="-23" y="-9" as="offset" />
          </mxGeometry>
        </mxCell>
        <mxCell id="VPtR1da3bGN1WhFtwcaK-7" value="" style="edgeStyle=orthogonalEdgeStyle;rounded=0;orthogonalLoop=1;jettySize=auto;html=1;" edge="1" parent="VPtR1da3bGN1WhFtwcaK-2" source="VPtR1da3bGN1WhFtwcaK-9" target="VPtR1da3bGN1WhFtwcaK-15">
          <mxGeometry relative="1" as="geometry">
            <mxPoint x="210" y="170" as="targetPoint" />
          </mxGeometry>
        </mxCell>
        <mxCell id="VPtR1da3bGN1WhFtwcaK-8" value="Callback returns value" style="edgeLabel;html=1;align=center;verticalAlign=middle;resizable=0;points=[];" vertex="1" connectable="0" parent="VPtR1da3bGN1WhFtwcaK-7">
          <mxGeometry x="-0.7034" y="1" relative="1" as="geometry">
            <mxPoint x="36" y="-10" as="offset" />
          </mxGeometry>
        </mxCell>
        <mxCell id="VPtR1da3bGN1WhFtwcaK-9" value="" style="rhombus;whiteSpace=wrap;html=1;" vertex="1" parent="VPtR1da3bGN1WhFtwcaK-2">
          <mxGeometry x="122" y="100" width="36" height="36" as="geometry" />
        </mxCell>
        <mxCell id="VPtR1da3bGN1WhFtwcaK-10" value="" style="group" vertex="1" connectable="0" parent="VPtR1da3bGN1WhFtwcaK-2">
          <mxGeometry x="140" y="70" width="75.59" height="20" as="geometry" />
        </mxCell>
        <mxCell id="VPtR1da3bGN1WhFtwcaK-11" value="" style="endArrow=none;dashed=1;html=1;dashPattern=1 3;strokeWidth=2;rounded=0;fillColor=#1ba1e2;strokeColor=#006EAF;" edge="1" parent="VPtR1da3bGN1WhFtwcaK-10" target="VPtR1da3bGN1WhFtwcaK-13">
          <mxGeometry width="50" height="50" relative="1" as="geometry">
            <mxPoint y="7" as="sourcePoint" />
            <mxPoint x="10.408534998698883" y="25.200000000000045" as="targetPoint" />
          </mxGeometry>
        </mxCell>
        <mxCell id="VPtR1da3bGN1WhFtwcaK-12" value="started" style="edgeLabel;html=1;align=center;verticalAlign=middle;resizable=0;points=[];fontSize=12;fontColor=#006EAF;" vertex="1" connectable="0" parent="VPtR1da3bGN1WhFtwcaK-11">
          <mxGeometry x="0.2113" relative="1" as="geometry">
            <mxPoint x="-4" y="-9" as="offset" />
          </mxGeometry>
        </mxCell>
        <mxCell id="VPtR1da3bGN1WhFtwcaK-13" value="" style="sketch=0;outlineConnect=0;fontColor=#ffffff;fillColor=#006EAF;strokeColor=#006EAF;dashed=0;verticalLabelPosition=bottom;verticalAlign=top;align=center;html=1;fontSize=12;fontStyle=0;aspect=fixed;pointerEvents=1;shape=mxgraph.aws4.event;" vertex="1" parent="VPtR1da3bGN1WhFtwcaK-10">
          <mxGeometry x="49.59" y="-6" width="26" height="26" as="geometry" />
        </mxCell>
        <mxCell id="VPtR1da3bGN1WhFtwcaK-14" value="" style="ellipse;whiteSpace=wrap;html=1;" vertex="1" parent="VPtR1da3bGN1WhFtwcaK-2">
          <mxGeometry x="20" y="170" width="20" height="20" as="geometry" />
        </mxCell>
        <mxCell id="VPtR1da3bGN1WhFtwcaK-15" value="" style="ellipse;whiteSpace=wrap;html=1;" vertex="1" parent="VPtR1da3bGN1WhFtwcaK-2">
          <mxGeometry x="240" y="170" width="20" height="20" as="geometry" />
        </mxCell>
        <mxCell id="VPtR1da3bGN1WhFtwcaK-16" value="" style="group" vertex="1" connectable="0" parent="VPtR1da3bGN1WhFtwcaK-2">
          <mxGeometry x="30" y="140" width="70" height="20" as="geometry" />
        </mxCell>
        <mxCell id="VPtR1da3bGN1WhFtwcaK-17" value="" style="endArrow=none;dashed=1;html=1;dashPattern=1 3;strokeWidth=2;rounded=0;fillColor=#1ba1e2;strokeColor=#006EAF;" edge="1" parent="VPtR1da3bGN1WhFtwcaK-16" target="VPtR1da3bGN1WhFtwcaK-19">
          <mxGeometry width="50" height="50" relative="1" as="geometry">
            <mxPoint y="9.710000000000008" as="sourcePoint" />
            <mxPoint x="129" y="9.710000000000008" as="targetPoint" />
          </mxGeometry>
        </mxCell>
        <mxCell id="VPtR1da3bGN1WhFtwcaK-18" value="rejected" style="edgeLabel;html=1;align=left;verticalAlign=middle;resizable=0;points=[];fontSize=12;fontColor=#006EAF;rotation=0;" vertex="1" connectable="0" parent="VPtR1da3bGN1WhFtwcaK-17">
          <mxGeometry x="0.2113" relative="1" as="geometry">
            <mxPoint x="-26" y="-12" as="offset" />
          </mxGeometry>
        </mxCell>
        <mxCell id="VPtR1da3bGN1WhFtwcaK-19" value="" style="sketch=0;outlineConnect=0;fontColor=#ffffff;fillColor=#006EAF;strokeColor=#006EAF;dashed=0;verticalLabelPosition=bottom;verticalAlign=top;align=center;html=1;fontSize=12;fontStyle=0;aspect=fixed;pointerEvents=1;shape=mxgraph.aws4.event;" vertex="1" parent="VPtR1da3bGN1WhFtwcaK-16">
          <mxGeometry x="50" width="20" height="20" as="geometry" />
        </mxCell>
        <mxCell id="VPtR1da3bGN1WhFtwcaK-20" value="" style="group" vertex="1" connectable="0" parent="VPtR1da3bGN1WhFtwcaK-2">
          <mxGeometry x="180" y="140.2" width="70" height="18.80000000000001" as="geometry" />
        </mxCell>
        <mxCell id="VPtR1da3bGN1WhFtwcaK-21" value="" style="sketch=0;outlineConnect=0;fontColor=#ffffff;fillColor=#006EAF;strokeColor=#006EAF;dashed=0;verticalLabelPosition=bottom;verticalAlign=top;align=center;html=1;fontSize=12;fontStyle=0;aspect=fixed;pointerEvents=1;shape=mxgraph.aws4.event;" vertex="1" parent="VPtR1da3bGN1WhFtwcaK-20">
          <mxGeometry width="18.799999999999997" height="18.799999999999997" as="geometry" />
        </mxCell>
        <mxCell id="VPtR1da3bGN1WhFtwcaK-22" value="" style="endArrow=none;dashed=1;html=1;dashPattern=1 3;strokeWidth=2;rounded=0;fillColor=#1ba1e2;strokeColor=#006EAF;" edge="1" parent="VPtR1da3bGN1WhFtwcaK-20" target="VPtR1da3bGN1WhFtwcaK-21">
          <mxGeometry width="50" height="50" relative="1" as="geometry">
            <mxPoint x="70" y="8.510000000000048" as="sourcePoint" />
            <mxPoint x="150.83999999999997" y="8.510000000000048" as="targetPoint" />
          </mxGeometry>
        </mxCell>
        <mxCell id="VPtR1da3bGN1WhFtwcaK-23" value="fulfilled" style="edgeLabel;html=1;align=right;verticalAlign=middle;resizable=0;points=[];fontSize=12;fontColor=#006EAF;rotation=0;" vertex="1" connectable="0" parent="VPtR1da3bGN1WhFtwcaK-22">
          <mxGeometry x="0.2113" relative="1" as="geometry">
            <mxPoint x="28" y="-12" as="offset" />
          </mxGeometry>
        </mxCell>
        <mxCell id="VPtR1da3bGN1WhFtwcaK-24" style="edgeStyle=orthogonalEdgeStyle;rounded=0;orthogonalLoop=1;jettySize=auto;html=1;" edge="1" parent="1" source="VPtR1da3bGN1WhFtwcaK-25" target="VPtR1da3bGN1WhFtwcaK-2">
          <mxGeometry relative="1" as="geometry" />
        </mxCell>
        <mxCell id="VPtR1da3bGN1WhFtwcaK-25" value="" style="rounded=0;whiteSpace=wrap;html=1;" vertex="1" parent="1">
          <mxGeometry x="40" y="50" width="240" height="70" as="geometry" />
        </mxCell>
        <mxCell id="VPtR1da3bGN1WhFtwcaK-26" value="Finite scenario - Cyclic" style="text;html=1;strokeColor=none;fillColor=none;align=center;verticalAlign=middle;whiteSpace=wrap;rounded=0;fontSize=16;" vertex="1" parent="1">
          <mxGeometry x="77.5" y="54" width="172.5" height="30" as="geometry" />
        </mxCell>
        <mxCell id="VPtR1da3bGN1WhFtwcaK-27" value="" style="group" vertex="1" connectable="0" parent="1">
          <mxGeometry x="75" y="67" width="190" height="44" as="geometry" />
        </mxCell>
        <mxCell id="VPtR1da3bGN1WhFtwcaK-28" value="&lt;font style=&quot;font-size: 10px;&quot;&gt;Trigger&lt;/font&gt;" style="rounded=0;whiteSpace=wrap;html=1;dashed=1;" vertex="1" parent="VPtR1da3bGN1WhFtwcaK-27">
          <mxGeometry x="-20" y="24" width="210" height="20" as="geometry" />
        </mxCell>
        <mxCell id="VPtR1da3bGN1WhFtwcaK-35" value="" style="edgeStyle=orthogonalEdgeStyle;rounded=0;orthogonalLoop=1;jettySize=auto;html=1;" edge="1" parent="1" source="VPtR1da3bGN1WhFtwcaK-30" target="VPtR1da3bGN1WhFtwcaK-34">
          <mxGeometry relative="1" as="geometry" />
        </mxCell>
        <mxCell id="VPtR1da3bGN1WhFtwcaK-30" value="" style="rhombus;whiteSpace=wrap;html=1;" vertex="1" parent="1">
          <mxGeometry x="162" y="422" width="36" height="36" as="geometry" />
        </mxCell>
        <mxCell id="VPtR1da3bGN1WhFtwcaK-34" value="" style="ellipse;whiteSpace=wrap;html=1;" vertex="1" parent="1">
          <mxGeometry x="73" y="500" width="14" height="14" as="geometry" />
        </mxCell>
        <mxCell id="VPtR1da3bGN1WhFtwcaK-36" value="Scenario expired" style="edgeLabel;html=1;align=center;verticalAlign=middle;resizable=0;points=[];" vertex="1" connectable="0" parent="1">
          <mxGeometry x="118" y="430" as="geometry" />
        </mxCell>
        <mxCell id="VPtR1da3bGN1WhFtwcaK-39" value="" style="group" vertex="1" connectable="0" parent="1">
          <mxGeometry x="80" y="470" width="70" height="20" as="geometry" />
        </mxCell>
        <mxCell id="VPtR1da3bGN1WhFtwcaK-40" value="" style="endArrow=none;dashed=1;html=1;dashPattern=1 3;strokeWidth=2;rounded=0;fillColor=#1ba1e2;strokeColor=#006EAF;" edge="1" parent="VPtR1da3bGN1WhFtwcaK-39" target="VPtR1da3bGN1WhFtwcaK-42">
          <mxGeometry width="50" height="50" relative="1" as="geometry">
            <mxPoint y="9.710000000000008" as="sourcePoint" />
            <mxPoint x="129" y="9.710000000000008" as="targetPoint" />
          </mxGeometry>
        </mxCell>
        <mxCell id="VPtR1da3bGN1WhFtwcaK-41" value="settled" style="edgeLabel;html=1;align=left;verticalAlign=middle;resizable=0;points=[];fontSize=12;fontColor=#006EAF;rotation=0;" vertex="1" connectable="0" parent="VPtR1da3bGN1WhFtwcaK-40">
          <mxGeometry x="0.2113" relative="1" as="geometry">
            <mxPoint x="-27" y="-12" as="offset" />
          </mxGeometry>
        </mxCell>
        <mxCell id="VPtR1da3bGN1WhFtwcaK-42" value="" style="sketch=0;outlineConnect=0;fontColor=#ffffff;fillColor=#006EAF;strokeColor=#006EAF;dashed=0;verticalLabelPosition=bottom;verticalAlign=top;align=center;html=1;fontSize=12;fontStyle=0;aspect=fixed;pointerEvents=1;shape=mxgraph.aws4.event;" vertex="1" parent="VPtR1da3bGN1WhFtwcaK-39">
          <mxGeometry x="50" width="20" height="20" as="geometry" />
        </mxCell>
      </root>
    </mxGraphModel>
  </diagram>
</mxfile>
